<svg width="2850" height="1800" viewBox="0 0 2850 1800" fill="none" xmlns="http://www.w3.org/2000/svg">
<path d="M2850 0H0V1800H2850V0Z" fill="url(#paint0_linear_101_787)"/>
<path d="M2415.97 51.992C2415.97 51.608 2415.97 51.224 2415.97 50.839" stroke="white" stroke-width="2.9602" stroke-miterlimit="10" stroke-linecap="round" stroke-linejoin="round"/>
<path d="M2355.69 177.627C2355.33 178.011 2354.96 178.395 2354.6 178.78" stroke="white" stroke-width="2.9602" stroke-miterlimit="10" stroke-linecap="round" stroke-linejoin="round"/>
<path d="M2208.83 93.486C2208.47 93.486 2208.1 93.486 2207.74 93.486" stroke="white" stroke-width="2.9602" stroke-miterlimit="10" stroke-linecap="round" stroke-linejoin="round"/>
<path d="M2251.57 211.052C2251.57 210.668 2251.57 210.284 2251.57 209.899" stroke="white" stroke-width="2.9602" stroke-miterlimit="10" stroke-linecap="round" stroke-linejoin="round"/>
<path d="M2327.39 333.265C2327.3 333.828 2328.42 333.786 2328.29 333.231" stroke="white" stroke-width="2.9602" stroke-miterlimit="10" stroke-linecap="round" stroke-linejoin="round"/>
<path d="M2181.43 294.04C2181.43 294.424 2181.43 294.809 2181.43 295.193" stroke="white" stroke-width="2.9602" stroke-miterlimit="10" stroke-linecap="round" stroke-linejoin="round"/>
<path d="M2254.86 484.222C2255.23 483.838 2255.59 483.454 2255.96 483.069" stroke="white" stroke-width="2.9602" stroke-miterlimit="10" stroke-linecap="round" stroke-linejoin="round"/>
<path d="M2571.6 318.245C2571.6 317.861 2571.6 317.477 2571.6 317.092" stroke="white" stroke-width="2.9602" stroke-miterlimit="10" stroke-linecap="round" stroke-linejoin="round"/>
<path d="M2775.45 345.908C2775.82 345.524 2776.18 345.14 2776.55 344.755" stroke="white" stroke-width="2.9602" stroke-miterlimit="10" stroke-linecap="round" stroke-linejoin="round"/>
<path d="M2715.17 253.699C2715.17 254.083 2715.17 254.467 2715.17 254.852" stroke="white" stroke-width="2.9602" stroke-miterlimit="10" stroke-linecap="round" stroke-linejoin="round"/>
<path d="M2764.49 105.012C2764.49 104.628 2764.49 104.244 2764.49 103.859" stroke="white" stroke-width="2.9602" stroke-miterlimit="10" stroke-linecap="round" stroke-linejoin="round"/>
<path d="M2796.28 71.586C2796.64 70.818 2797.01 70.049 2797.37 69.281" stroke="white" stroke-width="2.9602" stroke-miterlimit="10" stroke-linecap="round" stroke-linejoin="round"/>
<path d="M2824.77 115.386C2824.77 115.002 2824.77 114.618 2824.77 114.233" stroke="white" stroke-width="2.9602" stroke-miterlimit="10" stroke-linecap="round" stroke-linejoin="round"/>
<path d="M2668.05 93.486C2667.68 93.486 2667.32 93.486 2666.95 93.486" stroke="white" stroke-width="2.9602" stroke-miterlimit="10" stroke-linecap="round" stroke-linejoin="round"/>
<path d="M2698.15 386.068C2698.15 385.387 2698.15 384.707 2698.15 384.026" stroke="white" stroke-width="2.9602" stroke-miterlimit="10" stroke-linecap="round" stroke-linejoin="round"/>
<path d="M2624.37 582.095C2624.37 581.414 2624.37 580.734 2624.37 580.053" stroke="white" stroke-width="2.9602" stroke-miterlimit="10" stroke-linecap="round" stroke-linejoin="round"/>
<path d="M2558.35 941.476C2557.71 941.476 2557.06 941.476 2556.41 941.476" stroke="white" stroke-width="2.9602" stroke-miterlimit="10" stroke-linecap="round" stroke-linejoin="round"/>
<path d="M2399.14 994.567C2399.79 994.567 2400.44 994.567 2401.08 994.567" stroke="white" stroke-width="2.9602" stroke-miterlimit="10" stroke-linecap="round" stroke-linejoin="round"/>
<path d="M2338.95 919.015C2340.25 919.015 2341.54 919.015 2342.84 919.015" stroke="white" stroke-width="2.9602" stroke-miterlimit="10" stroke-linecap="round" stroke-linejoin="round"/>
<path d="M2717.56 919.015C2717.56 918.334 2717.56 917.654 2717.56 916.973" stroke="white" stroke-width="2.9602" stroke-miterlimit="10" stroke-linecap="round" stroke-linejoin="round"/>
<path d="M2729.21 947.602C2729.21 948.283 2729.21 948.963 2729.21 949.644" stroke="white" stroke-width="2.9602" stroke-miterlimit="10" stroke-linecap="round" stroke-linejoin="round"/>
<path d="M2696.21 1159.96C2695.56 1159.28 2694.91 1158.6 2694.27 1157.92" stroke="white" stroke-width="2.9602" stroke-miterlimit="10" stroke-linecap="round" stroke-linejoin="round"/>
<path d="M2797.17 1188.55C2797.17 1189.23 2797.17 1189.91 2797.17 1190.59" stroke="white" stroke-width="2.9602" stroke-miterlimit="10" stroke-linecap="round" stroke-linejoin="round"/>
<path d="M1843.84 927.183C1843.2 927.183 1842.55 927.183 1841.9 927.183" stroke="white" stroke-width="2.9602" stroke-miterlimit="10" stroke-linecap="round" stroke-linejoin="round"/>
<path d="M2043.83 594.346C2043.83 593.665 2043.83 592.985 2043.83 592.304" stroke="white" stroke-width="2.9602" stroke-miterlimit="10" stroke-linecap="round" stroke-linejoin="round"/>
<path d="M2171.97 641.311C2171.33 641.311 2170.68 641.311 2170.03 641.311" stroke="white" stroke-width="2.9602" stroke-miterlimit="10" stroke-linecap="round" stroke-linejoin="round"/>
<path d="M1921.51 138.994C1920.86 139.675 1920.21 140.355 1919.57 141.036" stroke="white" stroke-width="2.9602" stroke-miterlimit="10" stroke-linecap="round" stroke-linejoin="round"/>
<path d="M1843.84 83.861C1843.84 83.18 1843.84 82.5 1843.84 81.819" stroke="white" stroke-width="2.9602" stroke-miterlimit="10" stroke-linecap="round" stroke-linejoin="round"/>
<path d="M1775.89 316.642C1775.24 316.642 1774.59 316.642 1773.95 316.642" stroke="white" stroke-width="2.9602" stroke-miterlimit="10" stroke-linecap="round" stroke-linejoin="round"/>
<path d="M1731.23 420.781C1731.88 420.781 1732.52 420.781 1733.17 420.781" stroke="white" stroke-width="2.9602" stroke-miterlimit="10" stroke-linecap="round" stroke-linejoin="round"/>
<path d="M1484.65 181.874C1486.59 181.874 1488.53 181.874 1490.47 181.874" stroke="white" stroke-width="2.9602" stroke-miterlimit="10" stroke-linecap="round" stroke-linejoin="round"/>
<path d="M1647.74 169.623C1647.09 169.623 1646.45 169.623 1645.8 169.623" stroke="white" stroke-width="2.9602" stroke-miterlimit="10" stroke-linecap="round" stroke-linejoin="round"/>
<path d="M1179.82 310.517C1180.46 309.836 1181.11 309.156 1181.76 308.475" stroke="white" stroke-width="2.9602" stroke-miterlimit="10" stroke-linecap="round" stroke-linejoin="round"/>
<path d="M1067.2 179.832C1067.85 180.513 1068.5 181.193 1069.15 181.874" stroke="white" stroke-width="2.9602" stroke-miterlimit="10" stroke-linecap="round" stroke-linejoin="round"/>
<path d="M814.793 535.13C814.793 534.449 814.793 533.769 814.793 533.088" stroke="white" stroke-width="2.9602" stroke-miterlimit="10" stroke-linecap="round" stroke-linejoin="round"/>
<path d="M735.188 555.549C734.541 555.549 733.894 555.549 733.246 555.549" stroke="white" stroke-width="2.9602" stroke-miterlimit="10" stroke-linecap="round" stroke-linejoin="round"/>
<path d="M845.859 633.143C846.506 633.143 847.153 633.143 847.801 633.143" stroke="white" stroke-width="2.9602" stroke-miterlimit="10" stroke-linecap="round" stroke-linejoin="round"/>
<path d="M754.604 716.863C754.604 716.182 754.604 715.502 754.604 714.821" stroke="white" stroke-width="2.9602" stroke-miterlimit="10" stroke-linecap="round" stroke-linejoin="round"/>
<path d="M838.093 1008.86C836.49 1008.86 836.49 1008.86 838.093 1008.86" stroke="white" stroke-width="2.9602" stroke-miterlimit="10" stroke-linecap="round" stroke-linejoin="round"/>
<path d="M911.874 976.189C910.271 976.189 910.271 976.189 911.874 976.189" stroke="white" stroke-width="2.9602" stroke-miterlimit="10" stroke-linecap="round" stroke-linejoin="round"/>
<path d="M995.363 845.505C995.363 843.819 995.363 843.819 995.363 845.505" stroke="white" stroke-width="2.9602" stroke-miterlimit="10" stroke-linecap="round" stroke-linejoin="round"/>
<path d="M836.15 1282.48C836.797 1282.48 837.444 1282.48 838.092 1282.48" stroke="white" stroke-width="2.9602" stroke-miterlimit="10" stroke-linecap="round" stroke-linejoin="round"/>
<path d="M715.771 1059.91C716.418 1059.91 717.066 1059.91 717.714 1059.91" stroke="white" stroke-width="2.9602" stroke-miterlimit="10" stroke-linecap="round" stroke-linejoin="round"/>
<path d="M527.436 1012.94C527.436 1012.26 527.436 1011.58 527.436 1010.9" stroke="white" stroke-width="2.9602" stroke-miterlimit="10" stroke-linecap="round" stroke-linejoin="round"/>
<path d="M158.533 1284.52C159.18 1284.52 159.827 1284.52 160.475 1284.52" stroke="white" stroke-width="2.9602" stroke-miterlimit="10" stroke-linecap="round" stroke-linejoin="round"/>
<path d="M86.6914 1131.38C86.6914 1130.7 86.6914 1130.02 86.6914 1129.33" stroke="white" stroke-width="2.9602" stroke-miterlimit="10" stroke-linecap="round" stroke-linejoin="round"/>
<path d="M18.7363 1180.38C18.7363 1181.06 18.7363 1181.74 18.7363 1182.43" stroke="white" stroke-width="2.9602" stroke-miterlimit="10" stroke-linecap="round" stroke-linejoin="round"/>
<path d="M131.35 965.979C130.703 965.298 130.056 964.618 129.408 963.937" stroke="white" stroke-width="2.9602" stroke-miterlimit="10" stroke-linecap="round" stroke-linejoin="round"/>
<path d="M86.692 867.966C86.045 867.966 85.398 867.966 84.75 867.966" stroke="white" stroke-width="2.9602" stroke-miterlimit="10" stroke-linecap="round" stroke-linejoin="round"/>
<path d="M370.166 596.388C371.46 596.388 372.755 596.388 374.049 596.388" stroke="white" stroke-width="2.9602" stroke-miterlimit="10" stroke-linecap="round" stroke-linejoin="round"/>
<path d="M546.852 586.179C547.499 585.498 548.146 584.818 548.794 584.137" stroke="white" stroke-width="2.9602" stroke-miterlimit="10" stroke-linecap="round" stroke-linejoin="round"/>
<path d="M589.566 682.15C590.213 682.831 590.86 683.511 591.508 684.192" stroke="white" stroke-width="2.9602" stroke-miterlimit="10" stroke-linecap="round" stroke-linejoin="round"/>
<path d="M226.488 529.004C227.135 529.004 227.782 529.004 228.43 529.004" stroke="white" stroke-width="2.9602" stroke-miterlimit="10" stroke-linecap="round" stroke-linejoin="round"/>
<path d="M294.445 486.124C295.092 486.124 295.739 486.124 296.387 486.124" stroke="white" stroke-width="2.9602" stroke-miterlimit="10" stroke-linecap="round" stroke-linejoin="round"/>
<path d="M121.641 412.614C122.288 412.614 122.935 412.614 123.583 412.614" stroke="white" stroke-width="2.9602" stroke-miterlimit="10" stroke-linecap="round" stroke-linejoin="round"/>
<path d="M674.998 379.943C674.998 378.257 674.998 378.257 674.998 379.943" stroke="white" stroke-width="2.9602" stroke-miterlimit="10" stroke-linecap="round" stroke-linejoin="round"/>
<path d="M552.678 136.952C553.325 136.952 553.972 136.952 554.62 136.952" stroke="white" stroke-width="2.9602" stroke-miterlimit="10" stroke-linecap="round" stroke-linejoin="round"/>
<path d="M711.889 65.484C711.889 66.165 711.889 66.845 711.889 67.526" stroke="white" stroke-width="2.9602" stroke-miterlimit="10" stroke-linecap="round" stroke-linejoin="round"/>
<path d="M469.188 40.98C469.835 41.661 470.482 42.341 471.13 43.022" stroke="white" stroke-width="2.9602" stroke-miterlimit="10" stroke-linecap="round" stroke-linejoin="round"/>
<path d="M317.744 22.603C317.744 21.922 317.744 21.242 317.744 20.561" stroke="white" stroke-width="2.9602" stroke-miterlimit="10" stroke-linecap="round" stroke-linejoin="round"/>
<path d="M65.3346 116.532C64.6876 116.532 64.0406 116.532 63.3926 116.532" stroke="white" stroke-width="2.9602" stroke-miterlimit="10" stroke-linecap="round" stroke-linejoin="round"/>
<path d="M131.35 18.519C131.997 17.838 132.644 17.158 133.292 16.477" stroke="white" stroke-width="2.9602" stroke-miterlimit="10" stroke-linecap="round" stroke-linejoin="round"/>
<g opacity="0.4">
<path opacity="0.4" d="M508.713 1188.39C508.713 1188.74 508.713 1189.09 508.713 1189.45" stroke="white" stroke-width="2.7185" stroke-miterlimit="10" stroke-linecap="round" stroke-linejoin="round"/>
<path opacity="0.4" d="M564.068 1073.01C564.403 1072.66 564.739 1072.31 565.074 1071.95" stroke="white" stroke-width="2.7185" stroke-miterlimit="10" stroke-linecap="round" stroke-linejoin="round"/>
<path opacity="0.4" d="M698.939 1150.28C699.275 1150.28 699.61 1150.28 699.945 1150.28" stroke="white" stroke-width="2.7185" stroke-miterlimit="10" stroke-linecap="round" stroke-linejoin="round"/>
<path opacity="0.4" d="M659.686 1042.31C659.686 1042.67 659.686 1043.02 659.686 1043.37" stroke="white" stroke-width="2.7185" stroke-miterlimit="10" stroke-linecap="round" stroke-linejoin="round"/>
<path opacity="0.4" d="M590.06 930.081C590.147 929.564 589.117 929.603 589.238 930.112" stroke="white" stroke-width="2.7185" stroke-miterlimit="10" stroke-linecap="round" stroke-linejoin="round"/>
<path opacity="0.4" d="M724.102 966.103C724.102 965.75 724.102 965.397 724.102 965.044" stroke="white" stroke-width="2.7185" stroke-miterlimit="10" stroke-linecap="round" stroke-linejoin="round"/>
<path opacity="0.4" d="M656.666 791.45C656.331 791.803 655.995 792.156 655.66 792.508" stroke="white" stroke-width="2.7185" stroke-miterlimit="10" stroke-linecap="round" stroke-linejoin="round"/>
<path opacity="0.4" d="M365.789 943.874C365.789 944.227 365.789 944.58 365.789 944.932" stroke="white" stroke-width="2.7185" stroke-miterlimit="10" stroke-linecap="round" stroke-linejoin="round"/>
<path opacity="0.4" d="M178.582 918.47C178.247 918.823 177.911 919.176 177.576 919.528" stroke="white" stroke-width="2.7185" stroke-miterlimit="10" stroke-linecap="round" stroke-linejoin="round"/>
<path opacity="0.4" d="M233.939 1003.15C233.939 1002.8 233.939 1002.45 233.939 1002.09" stroke="white" stroke-width="2.7185" stroke-miterlimit="10" stroke-linecap="round" stroke-linejoin="round"/>
<path opacity="0.4" d="M188.648 1139.7C188.648 1140.05 188.648 1140.4 188.648 1140.76" stroke="white" stroke-width="2.7185" stroke-miterlimit="10" stroke-linecap="round" stroke-linejoin="round"/>
<path opacity="0.4" d="M159.458 1170.39C159.122 1171.1 158.787 1171.8 158.451 1172.51" stroke="white" stroke-width="2.7185" stroke-miterlimit="10" stroke-linecap="round" stroke-linejoin="round"/>
<path opacity="0.4" d="M133.291 1130.17C133.291 1130.52 133.291 1130.88 133.291 1131.23" stroke="white" stroke-width="2.7185" stroke-miterlimit="10" stroke-linecap="round" stroke-linejoin="round"/>
<path opacity="0.4" d="M277.219 1150.28C277.554 1150.28 277.89 1150.28 278.225 1150.28" stroke="white" stroke-width="2.7185" stroke-miterlimit="10" stroke-linecap="round" stroke-linejoin="round"/>
<path opacity="0.4" d="M249.574 881.589C249.574 882.214 249.574 882.839 249.574 883.464" stroke="white" stroke-width="2.7185" stroke-miterlimit="10" stroke-linecap="round" stroke-linejoin="round"/>
<path opacity="0.4" d="M317.33 701.568C317.33 702.193 317.33 702.818 317.33 703.443" stroke="white" stroke-width="2.7185" stroke-miterlimit="10" stroke-linecap="round" stroke-linejoin="round"/>
<path opacity="0.4" d="M377.955 371.53C378.549 371.53 379.144 371.53 379.738 371.53" stroke="white" stroke-width="2.7185" stroke-miterlimit="10" stroke-linecap="round" stroke-linejoin="round"/>
<path opacity="0.4" d="M524.168 322.774C523.574 322.774 522.979 322.774 522.385 322.774" stroke="white" stroke-width="2.7185" stroke-miterlimit="10" stroke-linecap="round" stroke-linejoin="round"/>
<path opacity="0.4" d="M579.443 392.157C578.254 392.157 577.066 392.157 575.877 392.157" stroke="white" stroke-width="2.7185" stroke-miterlimit="10" stroke-linecap="round" stroke-linejoin="round"/>
<path opacity="0.4" d="M231.742 392.157C231.742 392.782 231.742 393.407 231.742 394.032" stroke="white" stroke-width="2.7185" stroke-miterlimit="10" stroke-linecap="round" stroke-linejoin="round"/>
<path opacity="0.4" d="M221.045 365.904C221.045 365.279 221.045 364.654 221.045 364.029" stroke="white" stroke-width="2.7185" stroke-miterlimit="10" stroke-linecap="round" stroke-linejoin="round"/>
<path opacity="0.4" d="M251.357 170.881C251.951 171.506 252.546 172.131 253.14 172.756" stroke="white" stroke-width="2.7185" stroke-miterlimit="10" stroke-linecap="round" stroke-linejoin="round"/>
<path opacity="0.4" d="M158.637 144.628C158.637 144.003 158.637 143.378 158.637 142.753" stroke="white" stroke-width="2.7185" stroke-miterlimit="10" stroke-linecap="round" stroke-linejoin="round"/>
<path opacity="0.4" d="M1034.12 384.656C1034.72 384.656 1035.31 384.656 1035.91 384.656" stroke="white" stroke-width="2.7185" stroke-miterlimit="10" stroke-linecap="round" stroke-linejoin="round"/>
<path opacity="0.4" d="M850.471 690.317C850.471 690.942 850.471 691.567 850.471 692.192" stroke="white" stroke-width="2.7185" stroke-miterlimit="10" stroke-linecap="round" stroke-linejoin="round"/>
<path opacity="0.4" d="M732.787 647.187C733.381 647.187 733.976 647.187 734.57 647.187" stroke="white" stroke-width="2.7185" stroke-miterlimit="10" stroke-linecap="round" stroke-linejoin="round"/>
<path opacity="0.4" d="M962.803 1108.49C963.397 1107.86 963.992 1107.24 964.586 1106.61" stroke="white" stroke-width="2.7185" stroke-miterlimit="10" stroke-linecap="round" stroke-linejoin="round"/>
<path opacity="0.4" d="M1034.12 1159.12C1034.12 1159.75 1034.12 1160.37 1034.12 1161" stroke="white" stroke-width="2.7185" stroke-miterlimit="10" stroke-linecap="round" stroke-linejoin="round"/>
<path opacity="0.4" d="M1096.53 945.346C1097.13 945.346 1097.72 945.346 1098.32 945.346" stroke="white" stroke-width="2.7185" stroke-miterlimit="10" stroke-linecap="round" stroke-linejoin="round"/>
<path opacity="0.4" d="M1137.54 849.71C1136.95 849.71 1136.36 849.71 1135.76 849.71" stroke="white" stroke-width="2.7185" stroke-miterlimit="10" stroke-linecap="round" stroke-linejoin="round"/>
<path opacity="0.4" d="M1364 1069.11C1362.21 1069.11 1360.43 1069.11 1358.65 1069.11" stroke="white" stroke-width="2.7185" stroke-miterlimit="10" stroke-linecap="round" stroke-linejoin="round"/>
<path opacity="0.4" d="M1214.22 1080.36C1214.81 1080.36 1215.41 1080.36 1216 1080.36" stroke="white" stroke-width="2.7185" stroke-miterlimit="10" stroke-linecap="round" stroke-linejoin="round"/>
<path opacity="0.4" d="M1643.94 950.972C1643.34 951.597 1642.75 952.222 1642.15 952.847" stroke="white" stroke-width="2.7185" stroke-miterlimit="10" stroke-linecap="round" stroke-linejoin="round"/>
<path opacity="0.4" d="M1747.36 1070.99C1746.76 1070.36 1746.17 1069.74 1745.57 1069.11" stroke="white" stroke-width="2.7185" stroke-miterlimit="10" stroke-linecap="round" stroke-linejoin="round"/>
<path opacity="0.4" d="M1979.15 744.698C1979.15 745.323 1979.15 745.948 1979.15 746.573" stroke="white" stroke-width="2.7185" stroke-miterlimit="10" stroke-linecap="round" stroke-linejoin="round"/>
<path opacity="0.4" d="M2052.26 725.946C2052.86 725.946 2053.45 725.946 2054.04 725.946" stroke="white" stroke-width="2.7185" stroke-miterlimit="10" stroke-linecap="round" stroke-linejoin="round"/>
<path opacity="0.4" d="M1950.63 654.688C1950.03 654.688 1949.44 654.688 1948.84 654.688" stroke="white" stroke-width="2.7185" stroke-miterlimit="10" stroke-linecap="round" stroke-linejoin="round"/>
<path opacity="0.4" d="M2034.43 577.804C2034.43 578.429 2034.43 579.054 2034.43 579.679" stroke="white" stroke-width="2.7185" stroke-miterlimit="10" stroke-linecap="round" stroke-linejoin="round"/>
<path opacity="0.4" d="M1957.76 309.647C1959.23 309.647 1959.23 309.647 1957.76 309.647" stroke="white" stroke-width="2.7185" stroke-miterlimit="10" stroke-linecap="round" stroke-linejoin="round"/>
<path opacity="0.4" d="M1890 339.651C1891.47 339.651 1891.47 339.651 1890 339.651" stroke="white" stroke-width="2.7185" stroke-miterlimit="10" stroke-linecap="round" stroke-linejoin="round"/>
<path opacity="0.4" d="M1813.33 459.665C1813.33 461.213 1813.33 461.213 1813.33 459.665" stroke="white" stroke-width="2.7185" stroke-miterlimit="10" stroke-linecap="round" stroke-linejoin="round"/>
<path opacity="0.4" d="M1959.54 58.368C1958.95 58.368 1958.35 58.368 1957.76 58.368" stroke="white" stroke-width="2.7185" stroke-miterlimit="10" stroke-linecap="round" stroke-linejoin="round"/>
<path opacity="0.4" d="M2070.09 262.767C2069.5 262.767 2068.9 262.767 2068.31 262.767" stroke="white" stroke-width="2.7185" stroke-miterlimit="10" stroke-linecap="round" stroke-linejoin="round"/>
<path opacity="0.4" d="M2243.05 305.897C2243.05 306.522 2243.05 307.147 2243.05 307.772" stroke="white" stroke-width="2.7185" stroke-miterlimit="10" stroke-linecap="round" stroke-linejoin="round"/>
<path opacity="0.4" d="M2581.83 56.493C2581.24 56.493 2580.64 56.493 2580.05 56.493" stroke="white" stroke-width="2.7185" stroke-miterlimit="10" stroke-linecap="round" stroke-linejoin="round"/>
<path opacity="0.4" d="M2647.81 197.134C2647.81 197.759 2647.81 198.384 2647.81 199.009" stroke="white" stroke-width="2.7185" stroke-miterlimit="10" stroke-linecap="round" stroke-linejoin="round"/>
<path opacity="0.4" d="M2710.21 152.129C2710.21 151.504 2710.21 150.879 2710.21 150.254" stroke="white" stroke-width="2.7185" stroke-miterlimit="10" stroke-linecap="round" stroke-linejoin="round"/>
<path opacity="0.4" d="M2606.8 349.027C2607.39 349.652 2607.99 350.277 2608.58 350.902" stroke="white" stroke-width="2.7185" stroke-miterlimit="10" stroke-linecap="round" stroke-linejoin="round"/>
<path opacity="0.4" d="M2647.81 439.037C2648.4 439.037 2649 439.037 2649.59 439.037" stroke="white" stroke-width="2.7185" stroke-miterlimit="10" stroke-linecap="round" stroke-linejoin="round"/>
<path opacity="0.4" d="M2387.48 688.442C2386.29 688.442 2385.1 688.442 2383.91 688.442" stroke="white" stroke-width="2.7185" stroke-miterlimit="10" stroke-linecap="round" stroke-linejoin="round"/>
<path opacity="0.4" d="M2225.22 697.818C2224.62 698.443 2224.03 699.068 2223.44 699.693" stroke="white" stroke-width="2.7185" stroke-miterlimit="10" stroke-linecap="round" stroke-linejoin="round"/>
<path opacity="0.4" d="M2185.99 609.682C2185.4 609.057 2184.8 608.432 2184.21 607.807" stroke="white" stroke-width="2.7185" stroke-miterlimit="10" stroke-linecap="round" stroke-linejoin="round"/>
<path opacity="0.4" d="M2519.43 750.324C2518.83 750.324 2518.24 750.324 2517.64 750.324" stroke="white" stroke-width="2.7185" stroke-miterlimit="10" stroke-linecap="round" stroke-linejoin="round"/>
<path opacity="0.4" d="M2457.02 789.703C2456.43 789.703 2455.83 789.703 2455.24 789.703" stroke="white" stroke-width="2.7185" stroke-miterlimit="10" stroke-linecap="round" stroke-linejoin="round"/>
<path opacity="0.4" d="M2615.71 857.211C2615.12 857.211 2614.52 857.211 2613.93 857.211" stroke="white" stroke-width="2.7185" stroke-miterlimit="10" stroke-linecap="round" stroke-linejoin="round"/>
<path opacity="0.4" d="M2107.54 887.215C2107.54 888.763 2107.54 888.763 2107.54 887.215" stroke="white" stroke-width="2.7185" stroke-miterlimit="10" stroke-linecap="round" stroke-linejoin="round"/>
<path opacity="0.4" d="M2219.87 1110.37C2219.28 1110.37 2218.68 1110.37 2218.09 1110.37" stroke="white" stroke-width="2.7185" stroke-miterlimit="10" stroke-linecap="round" stroke-linejoin="round"/>
<path opacity="0.4" d="M2073.66 1176C2073.66 1175.37 2073.66 1174.75 2073.66 1174.12" stroke="white" stroke-width="2.7185" stroke-miterlimit="10" stroke-linecap="round" stroke-linejoin="round"/>
<path opacity="0.4" d="M2296.54 1198.5C2295.95 1197.88 2295.35 1197.25 2294.76 1196.63" stroke="white" stroke-width="2.7185" stroke-miterlimit="10" stroke-linecap="round" stroke-linejoin="round"/>
<path opacity="0.4" d="M2435.62 1215.38C2435.62 1216 2435.62 1216.63 2435.62 1217.25" stroke="white" stroke-width="2.7185" stroke-miterlimit="10" stroke-linecap="round" stroke-linejoin="round"/>
<path opacity="0.4" d="M2667.42 1129.12C2668.02 1129.12 2668.61 1129.12 2669.2 1129.12" stroke="white" stroke-width="2.7185" stroke-miterlimit="10" stroke-linecap="round" stroke-linejoin="round"/>
<path opacity="0.4" d="M2606.8 1219.13C2606.2 1219.75 2605.61 1220.38 2605.01 1221" stroke="white" stroke-width="2.7185" stroke-miterlimit="10" stroke-linecap="round" stroke-linejoin="round"/>
</g>
<path opacity="0.05" d="M2195.88 1800H2501.21C2546.09 1755.3 2571.01 1691.4 2563.67 1623.56C2550.83 1504.84 2444.1 1419 2325.29 1431.83C2206.48 1444.66 2120.57 1551.3 2133.41 1670.02C2138.95 1721.23 2161.97 1766.31 2195.88 1800Z" fill="#E5EDD4"/>
<path opacity="0.05" d="M2226.6 1571.76C2259.38 1538.98 2259.38 1485.84 2226.6 1453.06C2193.83 1420.28 2140.68 1420.28 2107.91 1453.06C2075.13 1485.84 2075.13 1538.98 2107.91 1571.76C2140.68 1604.53 2193.83 1604.53 2226.6 1571.76Z" fill="#E5EDD4"/>
<path opacity="0.05" d="M2107.57 1510.75C2138.08 1496.58 2151.32 1460.36 2137.15 1429.86C2122.98 1399.36 2086.76 1386.11 2056.25 1400.28C2025.75 1414.46 2012.51 1450.67 2026.68 1481.18C2040.85 1511.68 2077.07 1524.92 2107.57 1510.75Z" fill="#E5EDD4"/>
<path opacity="0.05" d="M828.876 518.215C861.474 485.617 861.474 432.765 828.876 400.167C796.278 367.569 743.426 367.569 710.828 400.167C678.23 432.765 678.231 485.617 710.828 518.215C743.426 550.813 796.278 550.813 828.876 518.215Z" fill="#E5EDD4"/>
<path opacity="0.05" d="M893.209 565.709C916.863 542.055 916.863 503.704 893.209 480.05C869.555 456.396 831.205 456.397 807.55 480.051C783.896 503.705 783.896 542.056 807.55 565.71C831.204 589.363 869.554 589.363 893.209 565.709Z" fill="#E5EDD4"/>
<g opacity="0.12">
<path opacity="0.12" d="M1951.7 1349.69H2066.28" stroke="white" stroke-width="20" stroke-miterlimit="10" stroke-linecap="round" stroke-linejoin="round"/>
<path opacity="0.12" d="M2187.08 1349.69H2298.6" stroke="white" stroke-width="20" stroke-miterlimit="10" stroke-linecap="round" stroke-linejoin="round"/>
<path opacity="0.12" d="M2383.68 1349.69H2427.13" stroke="white" stroke-width="20" stroke-miterlimit="10" stroke-linecap="round" stroke-linejoin="round"/>
<path opacity="0.12" d="M1880.49 1607.27H1992" stroke="white" stroke-width="20" stroke-miterlimit="10" stroke-linecap="round" stroke-linejoin="round"/>
<path opacity="0.12" d="M2077.08 1607.27H2120.54" stroke="white" stroke-width="20" stroke-miterlimit="10" stroke-linecap="round" stroke-linejoin="round"/>
<path opacity="0.12" d="M2520.62 1349.69H2781.9" stroke="white" stroke-width="20" stroke-miterlimit="10" stroke-linecap="round" stroke-linejoin="round"/>
<path opacity="0.12" d="M2720.39 1570.69H2776.28" stroke="white" stroke-width="20" stroke-miterlimit="10" stroke-linecap="round" stroke-linejoin="round"/>
<path opacity="0.12" d="M2742.96 1491.48H2517.58" stroke="white" stroke-width="20" stroke-miterlimit="10" stroke-linecap="round" stroke-linejoin="round"/>
<path opacity="0.12" d="M2311.71 1562.4H2252.61" stroke="white" stroke-width="20" stroke-miterlimit="10" stroke-linecap="round" stroke-linejoin="round"/>
<path opacity="0.12" d="M2579.72 1562.4H2550.17" stroke="white" stroke-width="20" stroke-miterlimit="10" stroke-linecap="round" stroke-linejoin="round"/>
<path opacity="0.12" d="M2487.86 1607.27H2422.32" stroke="white" stroke-width="20" stroke-miterlimit="10" stroke-linecap="round" stroke-linejoin="round"/>
<path opacity="0.12" d="M2514.11 1562.4H2383.68" stroke="white" stroke-width="20" stroke-miterlimit="10" stroke-linecap="round" stroke-linejoin="round"/>
<path opacity="0.12" d="M2396.78 1491.48H2285.26" stroke="white" stroke-width="20" stroke-miterlimit="10" stroke-linecap="round" stroke-linejoin="round"/>
<path opacity="0.12" d="M1994.07 1422.87H1768.69" stroke="white" stroke-width="20" stroke-miterlimit="10" stroke-linecap="round" stroke-linejoin="round"/>
<path opacity="0.12" d="M1647.89 1422.87H1536.37" stroke="white" stroke-width="20" stroke-miterlimit="10" stroke-linecap="round" stroke-linejoin="round"/>
<path opacity="0.12" d="M1156.73 1422.87H1055.74" stroke="white" stroke-width="20" stroke-miterlimit="10" stroke-linecap="round" stroke-linejoin="round"/>
<path opacity="0.12" d="M2297.2 1714.84H2071.81" stroke="white" stroke-width="20" stroke-miterlimit="10" stroke-linecap="round" stroke-linejoin="round"/>
<path opacity="0.12" d="M1765.22 1714.84H1653.7" stroke="white" stroke-width="20" stroke-miterlimit="10" stroke-linecap="round" stroke-linejoin="round"/>
<path opacity="0.12" d="M1407.5 1538.57H1324.15" stroke="white" stroke-width="20" stroke-miterlimit="10" stroke-linecap="round" stroke-linejoin="round"/>
<path opacity="0.12" d="M1804.23 1641.66H1622.08" stroke="white" stroke-width="20" stroke-miterlimit="10" stroke-linecap="round" stroke-linejoin="round"/>
<path opacity="0.12" d="M2756.34 1714.84H2692.18" stroke="white" stroke-width="20" stroke-miterlimit="10" stroke-linecap="round" stroke-linejoin="round"/>
<path opacity="0.12" d="M2736.04 1422.87H2621.86" stroke="white" stroke-width="20" stroke-miterlimit="10" stroke-linecap="round" stroke-linejoin="round"/>
<path opacity="0.12" d="M1440.04 1714.84H1392.52" stroke="white" stroke-width="20" stroke-miterlimit="10" stroke-linecap="round" stroke-linejoin="round"/>
<path opacity="0.12" d="M1886.31 1491.48H1811.31" stroke="white" stroke-width="20" stroke-miterlimit="10" stroke-linecap="round" stroke-linejoin="round"/>
<path opacity="0.12" d="M2528.37 1422.87H2267.09" stroke="white" stroke-width="20" stroke-miterlimit="10" stroke-linecap="round" stroke-linejoin="round"/>
<path opacity="0.12" d="M2198.37 1422.87H2142.49" stroke="white" stroke-width="20" stroke-miterlimit="10" stroke-linecap="round" stroke-linejoin="round"/>
<path opacity="0.12" d="M1460.9 1478.34H1346.71" stroke="white" stroke-width="20" stroke-miterlimit="10" stroke-linecap="round" stroke-linejoin="round"/>
<path opacity="0.12" d="M2774.78 1654.6H2513.49" stroke="white" stroke-width="20" stroke-miterlimit="10" stroke-linecap="round" stroke-linejoin="round"/>
<path opacity="0.12" d="M2444.77 1654.6H2388.89" stroke="white" stroke-width="20" stroke-miterlimit="10" stroke-linecap="round" stroke-linejoin="round"/>
</g>
<g opacity="0.12">
<path opacity="0.12" d="M989.579 1714.84H764.197" stroke="white" stroke-width="20" stroke-miterlimit="10" stroke-linecap="round" stroke-linejoin="round"/>
<path opacity="0.12" d="M643.394 1714.84H531.877" stroke="white" stroke-width="20" stroke-miterlimit="10" stroke-linecap="round" stroke-linejoin="round"/>
<path opacity="0.12" d="M446.799 1714.84H403.342" stroke="white" stroke-width="20" stroke-miterlimit="10" stroke-linecap="round" stroke-linejoin="round"/>
<path opacity="0.12" d="M949.986 1457.25H838.469" stroke="white" stroke-width="20" stroke-miterlimit="10" stroke-linecap="round" stroke-linejoin="round"/>
<path opacity="0.12" d="M753.391 1457.25H709.934" stroke="white" stroke-width="20" stroke-miterlimit="10" stroke-linecap="round" stroke-linejoin="round"/>
<path opacity="0.12" d="M309.856 1714.84H48.5703" stroke="white" stroke-width="20" stroke-miterlimit="10" stroke-linecap="round" stroke-linejoin="round"/>
<path opacity="0.12" d="M110.082 1493.84H54.1992" stroke="white" stroke-width="20" stroke-miterlimit="10" stroke-linecap="round" stroke-linejoin="round"/>
<path opacity="0.12" d="M87.5117 1573.05H312.894" stroke="white" stroke-width="20" stroke-miterlimit="10" stroke-linecap="round" stroke-linejoin="round"/>
<path opacity="0.12" d="M518.768 1502.13H577.869" stroke="white" stroke-width="20" stroke-miterlimit="10" stroke-linecap="round" stroke-linejoin="round"/>
<path opacity="0.12" d="M250.756 1502.13H280.307" stroke="white" stroke-width="20" stroke-miterlimit="10" stroke-linecap="round" stroke-linejoin="round"/>
<path opacity="0.12" d="M342.617 1457.25H408.152" stroke="white" stroke-width="20" stroke-miterlimit="10" stroke-linecap="round" stroke-linejoin="round"/>
<path opacity="0.12" d="M316.363 1502.13H446.799" stroke="white" stroke-width="20" stroke-miterlimit="10" stroke-linecap="round" stroke-linejoin="round"/>
<path opacity="0.12" d="M433.695 1573.05H545.212" stroke="white" stroke-width="20" stroke-miterlimit="10" stroke-linecap="round" stroke-linejoin="round"/>
<path opacity="0.12" d="M533.275 1349.69H758.656" stroke="white" stroke-width="20" stroke-miterlimit="10" stroke-linecap="round" stroke-linejoin="round"/>
<path opacity="0.12" d="M1065.25 1349.69H1176.77" stroke="white" stroke-width="20" stroke-miterlimit="10" stroke-linecap="round" stroke-linejoin="round"/>
<path opacity="0.12" d="M632.102 1573.05H819.118" stroke="white" stroke-width="20" stroke-miterlimit="10" stroke-linecap="round" stroke-linejoin="round"/>
<path opacity="0.12" d="M74.1309 1349.69H138.295" stroke="white" stroke-width="20" stroke-miterlimit="10" stroke-linecap="round" stroke-linejoin="round"/>
<path opacity="0.12" d="M94.4316 1641.66H208.617" stroke="white" stroke-width="20" stroke-miterlimit="10" stroke-linecap="round" stroke-linejoin="round"/>
<path opacity="0.12" d="M1390.43 1349.69H1437.95" stroke="white" stroke-width="20" stroke-miterlimit="10" stroke-linecap="round" stroke-linejoin="round"/>
<path opacity="0.12" d="M1042.31 1573.05H1117.32" stroke="white" stroke-width="20" stroke-miterlimit="10" stroke-linecap="round" stroke-linejoin="round"/>
<path opacity="0.12" d="M302.102 1641.66H563.388" stroke="white" stroke-width="20" stroke-miterlimit="10" stroke-linecap="round" stroke-linejoin="round"/>
<path opacity="0.12" d="M632.102 1641.66H687.985" stroke="white" stroke-width="20" stroke-miterlimit="10" stroke-linecap="round" stroke-linejoin="round"/>
<path opacity="0.12" d="M906.602 1641.66H1267.71" stroke="white" stroke-width="20" stroke-miterlimit="10" stroke-linecap="round" stroke-linejoin="round"/>
<path opacity="0.12" d="M55.6973 1409.93H316.984" stroke="white" stroke-width="20" stroke-miterlimit="10" stroke-linecap="round" stroke-linejoin="round"/>
<path opacity="0.12" d="M385.697 1409.93H441.58" stroke="white" stroke-width="20" stroke-miterlimit="10" stroke-linecap="round" stroke-linejoin="round"/>
</g>
<path opacity="0.4" d="M1093.55 347.268L1738.9 200.01C1739.17 199.949 1739.43 200.117 1739.5 200.386C1739.56 200.653 1739.39 200.919 1739.13 200.983L1095.85 357.023C1093.16 357.675 1090.45 356.024 1089.79 353.334C1089.14 350.644 1090.79 347.935 1093.48 347.283C1093.5 347.28 1093.54 347.271 1093.55 347.268Z" fill="white"/>
<path opacity="0.4" d="M1941.62 861.084L2244.62 793.013C2244.75 792.985 2244.87 793.062 2244.9 793.187C2244.93 793.31 2244.85 793.433 2244.73 793.463L1942.7 865.594C1941.43 865.896 1940.16 865.132 1939.86 863.889C1939.55 862.646 1940.32 861.393 1941.59 861.092C1941.59 861.09 1941.61 861.086 1941.62 861.084Z" fill="white"/>
<path opacity="0.4" d="M1757.07 840.094L1913.74 805.451C1913.86 805.423 1913.99 805.5 1914.02 805.625C1914.05 805.748 1913.97 805.871 1913.85 805.901L1758.14 844.603C1756.88 844.905 1755.61 844.141 1755.3 842.898C1755 841.655 1755.77 840.402 1757.04 840.101C1757.04 840.1 1757.06 840.096 1757.07 840.094Z" fill="white"/>
<path opacity="0.4" d="M1831.66 744.095L2073.48 690.624C2073.67 690.58 2073.87 690.7 2073.91 690.892C2073.96 691.082 2073.84 691.272 2073.64 691.318L1833.32 751.054C1831.37 751.519 1829.41 750.341 1828.94 748.422C1828.46 746.503 1829.66 744.57 1831.61 744.105C1831.62 744.104 1831.65 744.097 1831.66 744.095Z" fill="white"/>
<path opacity="0.4" d="M1855.06 338.927L2807.42 106.602C2807.69 106.537 2807.96 106.701 2808.02 106.969C2808.09 107.236 2807.92 107.505 2807.66 107.572L1857.48 348.652C1854.8 349.333 1852.08 347.71 1851.4 345.027C1850.71 342.345 1852.34 339.618 1855.02 338.938L1855.06 338.927Z" fill="white"/>
<defs>
<linearGradient id="paint0_linear_101_787" x1="1425" y1="1.46259e-05" x2="1425" y2="1342.81" gradientUnits="userSpaceOnUse">
<stop stop-color="#44164D"/>
<stop offset="0.1488" stop-color="#4A174D"/>
<stop offset="0.3381" stop-color="#59194C"/>
<stop offset="0.5492" stop-color="#731D4A"/>
<stop offset="0.7746" stop-color="#972248"/>
<stop offset="1" stop-color="#C32846"/>
</linearGradient>
</defs>
</svg>
