<svg width="691" height="1162" viewBox="0 0 691 1162" fill="none" xmlns="http://www.w3.org/2000/svg">
<path d="M0.002 35.1808C5.048 38.1108 9.901 41.2268 14.496 44.6598C22.982 66.7528 21.079 86.6878 24.568 108.546C34.412 104.825 43.941 92.7598 42.192 81.8238C53.635 104.09 53.913 120.19 54.406 148.13C71.138 75.7228 146.972 24.6558 198.05 10.5768C309.351 -21.5112 474.594 20.7948 551.329 118.71C515.398 96.3218 478.738 106.574 437.918 105.87C419.162 86.4948 393.92 72.4568 373.859 54.4238C373.859 54.4238 382.447 94.0268 385.316 107.683C353.575 98.9728 306.347 107.675 276.318 120.763C261.571 105.545 225.762 89.9568 205.941 85.5348C220.647 98.0338 242.111 121.529 250.296 137.993C227.654 149.678 206.217 176.708 196.074 198.298C222.14 183.779 423.856 136.37 546.276 267.732C654.62 383.987 664.153 426.364 690.832 517.927C686.644 504.25 629.173 430.25 593.318 411.948C521.608 375.329 505.745 370.987 425.351 364.159C415.753 342.224 411.227 309.494 404.269 287.607C394.121 309.199 378.893 341.58 375.377 366.008C335.212 327.223 246.868 317.538 196.968 323.473C230.609 366.232 274.386 415.891 296.545 449.048C296.545 449.048 287.345 470.13 289.12 473.022C291.702 476.855 318.283 482.774 325.186 490.113C325.186 490.113 376.918 562.779 367.944 564.173C364.147 564.108 296.674 585.099 291.015 586.96C263.2 593.968 197.892 495.211 197.892 495.211C119.118 362.441 13.535 450.568 13.535 450.568C9.244 451.308 4.708 451.769 0 452.038L0.002 35.1808Z" fill="#C32846"/>
<path d="M323.008 296.521C331.008 302.521 333.008 312.521 337.008 320.521C364.008 288.521 391.008 254.521 436.008 250.521C454.008 278.521 452.008 318.521 458.008 351.521C481.008 340.521 508.008 335.521 532.008 347.521C599.894 381.464 651.809 440.946 687.78 507.423C688.777 510.857 689.79 514.35 690.832 517.927C686.644 504.25 629.173 430.25 593.318 411.948C521.609 375.329 505.745 370.987 425.351 364.159C415.753 342.224 411.227 309.494 404.269 287.607C394.121 309.199 378.893 341.58 375.377 366.008C335.212 327.223 246.868 317.538 196.968 323.473C197.689 324.389 198.42 325.313 199.15 326.235C191.577 321.643 183.934 317.297 176.007 313.521C214.008 281.521 278.008 264.521 323.008 296.521Z" fill="#A11530"/>
<path d="M6.00795 342.521C13.008 332.521 17.008 320.521 25.008 310.521C64.008 261.521 102.008 218.521 154.008 179.521C170.008 167.521 193.008 152.521 190.008 135.521C188.008 122.521 168.008 111.521 151.008 107.521C169.008 92.5208 182.008 69.5208 205.008 63.5208C218.008 59.5208 235.008 74.5208 244.008 75.5208C277.008 78.5208 313.008 75.5208 347.008 74.5208C350.008 58.5208 348.008 43.5208 348.008 27.5208C371.008 28.5208 386.008 48.5208 405.008 58.5208C450.43 83.0488 497.503 99.3228 546.975 113.344C548.453 115.116 549.911 116.9 551.329 118.71C515.398 96.3218 478.738 106.574 437.918 105.87C419.162 86.4948 393.92 72.4568 373.859 54.4248C373.859 54.4248 382.447 94.0278 385.316 107.684C353.575 98.9738 306.347 107.676 276.318 120.764C261.571 105.546 225.762 89.9578 205.941 85.5358C220.647 98.0348 242.111 121.53 250.296 137.994C227.654 149.679 206.217 176.709 196.074 198.299C197.642 197.426 199.852 196.432 202.636 195.367C198.818 198.742 195.238 202.412 192.008 206.522C169.008 232.522 146.008 254.522 122.008 279.522C107.008 294.522 89.0079 304.522 74.0079 319.522C49.4839 344.658 24.586 367.166 0.00195312 390.267V350.029C1.97095 347.522 3.96995 345.019 6.00795 342.521Z" fill="#A11530"/>
<path d="M140.008 396.521C146.008 397.521 153.008 400.521 158.008 404.521C216.498 457.441 264.64 517.26 305.644 582.37C298.083 584.715 292.48 586.477 291.017 586.959C263.202 593.967 197.894 495.21 197.894 495.21C119.12 362.44 13.537 450.567 13.537 450.567C9.24595 451.307 4.71095 451.768 0.00195312 452.037V412.708C22.072 406.981 44.854 402.433 68.0079 397.522C92.0079 392.521 116.008 394.521 140.008 396.521Z" fill="#A11530"/>
<path d="M370.023 82.9748C370.023 72.5178 371.813 65.8298 373.859 54.4248C375.112 60.2638 384.577 104.167 385.316 107.684C382.003 106.775 378.513 106.066 374.9 105.521C372.299 93.4718 370.023 82.9748 370.023 82.9748Z" fill="#FF5B7B"/>
<path d="M288.904 472.047C265.817 439.061 224.948 392.461 193.133 352.023C200.834 351.107 209.453 350.564 218.667 350.442C247.654 385.902 278.93 422.689 296.546 449.048C296.546 449.048 288.705 467.021 288.904 472.047Z" fill="#FF5B7B"/>
<path d="M194.214 39.1268C143.136 53.2058 67.303 104.273 50.57 176.68C50.078 148.741 49.799 132.64 38.356 110.374C40.105 121.31 30.576 133.375 20.732 137.096C17.244 115.239 19.146 95.3038 10.66 73.2098C7.24098 70.6558 3.67898 68.2778 0.000976562 66.0208V35.1808C5.04698 38.1108 9.89998 41.2268 14.496 44.6598C22.982 66.7528 21.079 86.6878 24.568 108.546C34.412 104.825 43.941 92.7598 42.192 81.8238C53.635 104.09 53.913 120.19 54.406 148.13C71.138 75.7228 146.972 24.6558 198.05 10.5768C309.352 -21.5112 474.594 20.7948 551.329 118.71C535.864 109.074 520.263 105.492 504.254 104.473C419.063 37.6838 287.64 12.1928 194.214 39.1268Z" fill="#FF5B7B"/>
<path d="M321.351 518.662C314.448 511.323 287.866 505.404 285.285 501.571C283.511 498.68 292.71 477.597 292.71 477.597C291.936 476.438 291.129 475.255 290.303 474.057C296.141 477.884 318.877 483.404 325.187 490.112C325.187 490.112 376.919 562.778 367.945 564.172C366.945 564.155 361.523 565.6 353.978 567.771C341 546.263 321.351 518.662 321.351 518.662Z" fill="#FF5B7B"/>
<path d="M205.94 85.5358C205.94 85.5358 231.192 107.683 246.52 131.334C247.968 133.644 249.243 135.878 250.295 137.994C244.975 140.739 239.724 144.34 234.668 148.51C224.783 135.712 215.771 93.8918 205.94 85.5358Z" fill="#FF5B7B"/>
<path d="M542.44 296.282C420.02 164.92 218.304 212.33 192.238 226.848C197.636 215.358 206.234 202.326 216.51 190.887C276.809 174.039 440.911 154.671 546.276 267.732C654.62 383.987 664.153 426.364 690.832 517.927C689.273 512.834 680.323 499.376 667.855 483.546C648.89 428.258 622.942 382.661 542.44 296.282Z" fill="#FF5B7B"/>
<path d="M12.3099 312.785C19.0499 292.899 20.3819 272.071 28.4889 251.032C105.19 206.777 242.267 234.374 307.152 262.965C307.152 262.965 26.0339 285.3 34.3059 504.739C40.0329 500.667 45.5069 495.92 50.6069 490.694C140.907 440.643 321.833 468.089 399.169 506.747C566.411 590.367 648.857 711.475 648.857 885.143C627.632 844.121 600.754 812.944 572.552 789.231C561.979 757.233 540.593 729.624 508.397 712.825C517.307 729.159 526.212 745.493 534.532 761.826C465.087 719.18 399.169 714.718 399.169 714.718C399.169 698.865 391.242 659.234 391.242 655.269C375.388 659.229 347.642 675.084 339.715 690.94C316.907 671.638 286.326 657.01 253.829 648.062C255.776 636.662 257.209 625.262 258.634 613.862C249.331 623.165 240.046 632.488 231.903 642.952C197.641 636.36 162.713 636.106 133.619 643.379C210.72 703.602 259.815 770.388 290.285 835.446C287.848 846.863 282.675 857.959 277.484 868.339C285.169 864.496 292.855 861.375 300.541 858.924C365.23 1018.83 322.23 1161.95 313.365 1161.95C318.635 1139.14 295.295 1073.72 266.785 1016.8C270.167 1007.37 273.442 997.94 277.485 988.508C269.979 990.009 262.487 992.483 256.198 996.506C236.478 960.257 215.716 930.62 200.961 922.989C200.961 922.989 209.604 896.13 206.403 867.221C206.403 867.221 200.86 882.348 187.36 894.494C155.691 866.153 71.1299 803.343 0.00488281 771.5V302.157C3.27788 306.722 7.22888 310.5 12.3099 312.785Z" fill="#C32846"/>
<path d="M133.616 643.379C133.494 610.847 156.737 582.91 188.752 577.129C219.099 571.65 249.372 567.313 280.007 574.522C304.007 579.522 292.007 613.522 310.007 625.522C315.007 628.522 326.007 616.522 335.007 613.522C389.007 601.522 425.007 651.522 465.007 679.522C470.007 669.522 466.007 650.522 475.007 649.522C509.007 646.522 533.007 680.522 557.007 702.522C598.939 740.116 623.621 787.642 646.549 836.406C648.081 852.175 648.855 868.412 648.855 885.143C627.63 844.121 600.752 812.944 572.55 789.231C561.977 757.233 540.591 729.624 508.395 712.825C517.305 729.159 526.21 745.493 534.53 761.826C465.084 719.18 399.167 714.718 399.167 714.718C399.167 698.865 391.24 659.234 391.24 655.269C375.386 659.229 347.64 675.084 339.713 690.94C316.905 671.638 286.324 657.01 253.827 648.062C255.774 636.662 257.207 625.262 258.632 613.862C249.329 623.165 240.044 632.488 231.901 642.952C200.447 636.9 168.445 636.209 140.898 641.76C137.051 642.305 133.616 643.379 133.616 643.379Z" fill="#A11530"/>
<path d="M178.008 862.521C193.008 845.521 191.008 820.521 206.008 803.521C231.008 834.521 236.008 882.521 237.008 923.521C250.008 919.521 268.008 924.521 275.008 935.521C313.365 991.458 314.045 1053.78 307.158 1116.36C298.775 1087.29 283.688 1050.55 266.782 1016.8C270.165 1007.37 273.439 997.94 277.482 988.508C269.976 990.009 262.484 992.483 256.195 996.506C236.475 960.257 215.713 930.62 200.958 922.989C200.958 922.989 209.601 896.13 206.4 867.221C206.4 867.221 200.857 882.348 187.357 894.494C155.688 866.153 71.127 803.343 0.00195312 771.5V721.049C40.862 736.503 75.5439 760.15 111.008 788.521C138.008 809.521 158.008 835.521 178.008 862.521Z" fill="#A11530"/>
<path d="M0.00195312 595.983V460.799C16.574 423.014 37.9849 387.458 64.0079 351.522C85.0079 321.522 116.008 305.522 148.008 290.522C189.029 272.397 231.876 259.743 277.406 251.67C288.407 255.303 298.436 259.124 307.152 262.965C307.152 262.965 26.034 285.3 34.306 504.739C34.935 504.292 35.56 503.833 36.182 503.37C30.033 519.603 23.402 535.647 17.601 552.522C12.627 567.445 6.47895 581.782 0.00195312 595.983Z" fill="#A11530"/>
<path d="M386.251 526.711C308.915 488.052 151.858 472.918 34.3047 504.739C40.0317 500.667 45.5057 495.92 50.6057 490.694C140.906 440.643 321.832 468.089 399.168 506.747C566.41 590.367 648.856 711.475 648.856 885.143C644.135 876.018 639.132 867.383 633.899 859.206C620.299 709.814 538.346 602.757 386.251 526.711Z" fill="#FF5B7B"/>
<path d="M0.00195312 330.858V302.158C1.68895 304.508 3.55795 306.643 5.66395 308.479C4.05695 316.039 2.36295 323.51 0.00195312 330.858Z" fill="#FF5B7B"/>
<path d="M23.4795 266.795C24.8515 261.562 26.4575 256.303 28.4885 251.032C105.189 206.777 242.266 234.374 307.151 262.965C307.151 262.965 288.43 264.453 260.792 270.431C192.565 248.596 89.3475 234.494 23.4795 266.795Z" fill="#FF5B7B"/>
<path d="M495.479 732.789C509.08 739.885 520.743 748.917 530.486 759.387C520.721 753.584 511.052 748.526 501.651 744.12C499.598 740.342 497.54 736.565 495.479 732.789Z" fill="#FF5B7B"/>
<path d="M313.709 1147.14C325.375 1095.14 333.038 991.153 287.622 878.888C279.936 881.339 272.251 884.46 264.565 888.303C269.756 877.923 274.929 866.826 277.366 855.41C246.896 790.353 197.8 723.566 120.7 663.344C130.611 660.867 141.209 659.283 152.217 658.505C218.718 714.677 262.341 775.787 290.283 835.447C287.846 846.864 282.673 857.96 277.482 868.34C285.168 864.497 292.853 861.376 300.539 858.925C365.228 1018.83 322.228 1161.95 313.362 1161.95C314.245 1158.13 314.321 1153.11 313.709 1147.14Z" fill="#FF5B7B"/>
<path d="M192.675 889.14C193.222 887.9 193.484 887.185 193.484 887.185C193.518 887.495 193.544 887.802 193.575 888.112C193.28 888.454 192.981 888.797 192.675 889.14Z" fill="#FF5B7B"/>
</svg>
