<svg width="754" height="635" viewBox="0 0 754 635" fill="none" xmlns="http://www.w3.org/2000/svg">
<path d="M173.517 595.421C173.517 595.421 207.679 617.662 243.55 634.716H339.134C361.898 617.634 395.106 592.975 398.114 591.861C407.946 586.351 318.879 532.785 318.879 532.785C307.94 528.129 274.783 533.826 270.255 530.934C267.04 528.675 269.233 502.247 269.233 502.247C230.266 477.155 159.643 444.337 103.527 414.256C158.93 385.539 265.12 356.049 327.196 378.995C321.464 351.586 326.104 310.5 329.19 283.107C346.032 303.12 364.408 335.691 384.325 354.566C480.162 325.631 500.274 323.088 598.01 329.556C646.875 332.783 743.124 385.179 753.463 397.757C685.824 312.943 657.778 272.424 485.659 198.23C291.178 114.393 76.615 255.236 52.257 282.309C55.339 254.92 69.314 216.7 90.845 194.163C74.76 180.436 40.475 165.247 18.43 158.645C43.158 154.406 90.88 154.784 114.065 164.242C143.586 136.899 194.785 106.458 235.036 101.393C226.233 88.2446 200.395 50.2335 200.395 50.2335C230.862 60.2775 265.727 63.7686 295.221 75.8196C342.774 58.2066 381.113 30.8796 431.705 38.3926C310.879 -26.6804 118.8 -4.09641 0 69.0796V575.991C39.863 552.479 99.039 541.327 173.517 595.421Z" fill="#750C20"/>
<path d="M238.664 329.077C250.336 331.823 256.665 341.497 264.508 348.157C282.932 302.18 300.554 254.089 351.059 229.622C383.14 251.132 396.876 294.325 417.068 326.518C439.288 304.544 468.547 287.115 501.155 289.009C593.39 294.368 677.378 333.912 745.711 388.023C748.243 391.205 750.819 394.443 753.461 397.756C743.122 385.178 646.874 332.783 598.008 329.556C500.272 323.087 480.16 325.63 384.323 354.565C364.406 335.689 346.03 303.119 329.188 283.106C326.102 310.499 321.463 351.585 327.194 378.994C265.118 356.048 158.928 385.538 103.525 414.255C104.727 414.9 105.945 415.547 107.16 416.194C96.5468 414.744 85.9528 413.586 75.2578 413.16C106.421 362.237 173.711 315.48 238.664 329.077Z" fill="#5E0C1C"/>
<path d="M424.509 34.6766C361.593 42.1016 300.551 46.0635 238.109 40.5565C212.094 38.5285 186.697 24.1276 159.662 33.4136C166.083 50.3306 174.419 65.2916 177.366 83.5576C138.395 99.9056 97.91 119.268 58.492 130.936C47.669 133.926 21.963 125.712 8.51398 135.787C5.38798 137.94 2.57298 140.321 0.000976562 142.881V207.129C9.14798 209.149 16.638 212.862 20.038 218.66C29.372 233.732 13.302 256.676 0.000976562 275.647V399.582C17.455 363.118 34.927 330.013 50.847 292.831C52.937 287.033 55.611 281.542 58.678 276.258C55.882 278.636 53.721 280.68 52.256 282.309C55.338 254.92 69.314 216.7 90.844 194.163C74.759 180.436 40.474 165.247 18.429 158.645C43.156 154.406 90.879 154.784 114.064 164.242C143.585 136.899 194.784 106.458 235.035 101.393C226.232 88.2446 200.394 50.2335 200.394 50.2335C230.861 60.2775 265.726 63.7696 295.22 75.8196C342.773 58.2066 381.112 30.8796 431.704 38.3926C429.336 37.1156 426.931 35.8846 424.509 34.6766Z" fill="#5E0C1C"/>
<path d="M173.517 595.42C173.517 595.42 207.679 617.661 243.55 634.715H326.786C254.978 586.292 177.298 546.251 90.935 517.471C83.54 515.49 74.23 515.466 66.88 517.107C44.113 524.017 21.35 530.94 0.000976562 541.586V575.99C39.863 552.478 99.039 541.326 173.517 595.42Z" fill="#5E0C1C"/>
<path d="M207.409 82.1444C203.213 71.0884 202.601 63.2124 200.393 50.2334C204.188 55.8444 232.766 98.0065 235.034 101.392C230.832 101.921 226.507 102.741 222.104 103.79C214.258 92.2194 207.409 82.1444 207.409 82.1444Z" fill="#BA223F"/>
<path d="M269.612 530.001C229.639 505.507 163.611 474.615 110.541 446.167C119.091 441.735 128.854 437.285 139.475 433.012C187.273 457.469 238.254 482.299 269.232 502.246C269.232 502.247 267.365 524.777 269.612 530.001Z" fill="#BA223F"/>
<path d="M0 69.0795V105.413C98.399 41.5476 251.766 13.6815 371.477 44.5095C390.424 38.3875 409.928 35.1586 431.704 38.3916C310.879 -26.6804 118.8 -4.09646 0 69.0795Z" fill="#BA223F"/>
<path d="M325.894 564.695C314.955 560.039 281.798 565.737 277.27 562.845C274.055 560.586 276.248 534.158 276.248 534.158C274.887 533.281 273.477 532.392 272.04 531.497C280.337 532.918 308.88 528.529 318.879 532.784C318.879 532.784 407.947 586.351 398.114 591.861C396.949 592.293 391.25 596.258 383.384 601.946C359.724 585.042 325.894 564.695 325.894 564.695Z" fill="#BA223F"/>
<path d="M18.4277 158.644C18.4277 158.644 56.5577 170.705 83.7987 188.817C86.4027 190.608 88.7747 192.397 90.8427 194.161C85.7837 199.456 81.1487 205.624 76.9667 212.307C60.3837 203.222 33.1657 163.058 18.4277 158.644Z" fill="#BA223F"/>
<path d="M492.673 230.14C298.192 146.303 83.6295 287.146 59.2715 314.219C60.9115 299.642 65.6385 281.997 72.9465 265.281C136.012 220.35 318.271 126.071 485.658 198.228C657.776 272.422 685.822 312.941 753.461 397.755C749.611 393.072 733.848 382.867 713.057 371.736C668.907 321.808 620.56 285.267 492.673 230.14Z" fill="#BA223F"/>
<path d="M0 481.732C64.281 368.294 206.836 300.727 206.836 300.727C154.777 300.096 72.665 311.582 0 338.491V481.732Z" fill="#750C20"/>
<path d="M739.845 634.716C660.818 563.316 551.981 525.28 411.225 517.103C314.774 511.508 121.043 555.166 24.5557 634.716H739.845Z" fill="#750C20"/>
<path d="M624.036 634.715C601.418 627.161 578.339 623.315 556.345 633.954C555.902 634.18 555.517 634.44 555.158 634.715H624.036Z" fill="#5E0C1C"/>
<path d="M167.856 302.162C118.372 331.173 73.832 363.821 33.604 401.434C21.901 412.841 10.421 424.335 0 436.434V481.732C64.281 368.294 206.836 300.727 206.836 300.727C195.201 300.586 182.053 301.056 167.856 302.162Z" fill="#5E0C1C"/>
<path d="M61.6717 634.716C177.647 574.503 318.549 539.046 404.279 544.019C526.17 551.101 624.122 580.575 699.51 634.716H739.845C660.818 563.316 551.981 525.28 411.225 517.103C314.773 511.508 121.043 555.167 24.5557 634.716H61.6717Z" fill="#BA223F"/>
<path d="M0 338.491V362.89C52.713 344.22 109.674 333.492 156.147 329.47C185.753 310.72 206.836 300.727 206.836 300.727C154.777 300.096 72.665 311.582 0 338.491Z" fill="#BA223F"/>
</svg>
