<svg width="691" height="1162" viewBox="0 0 691 1162" fill="none" xmlns="http://www.w3.org/2000/svg">
<path d="M690.831 35.1808C685.785 38.1108 680.932 41.2268 676.337 44.6598C667.851 66.7528 669.754 86.6878 666.265 108.546C656.421 104.825 646.892 92.7598 648.641 81.8238C637.198 104.09 636.92 120.19 636.427 148.13C619.694 75.7228 543.861 24.6558 492.782 10.5768C381.481 -21.5112 216.239 20.7948 139.503 118.71C175.434 96.3218 212.094 106.574 252.914 105.87C271.67 86.4948 296.912 72.4568 316.973 54.4238C316.973 54.4238 308.385 94.0268 305.516 107.683C337.257 98.9728 384.485 107.675 414.514 120.763C429.261 105.545 465.07 89.9568 484.891 85.5348C470.185 98.0338 448.721 121.529 440.536 137.993C463.178 149.678 484.615 176.708 494.758 198.298C468.692 183.779 266.976 136.37 144.556 267.732C36.2119 383.986 26.678 426.364 0 517.927C4.188 504.25 61.6589 430.25 97.5139 411.948C169.223 375.329 185.087 370.987 265.481 364.159C275.079 342.224 279.605 309.494 286.563 287.607C296.71 309.199 311.939 341.58 315.455 366.008C355.62 327.223 443.964 317.538 493.864 323.473C460.223 366.232 416.446 415.891 394.287 449.048C394.287 449.048 403.486 470.13 401.712 473.022C399.13 476.855 372.549 482.774 365.646 490.113C365.646 490.113 313.914 562.779 322.888 564.173C326.685 564.108 394.158 585.099 399.817 586.96C427.632 593.968 492.94 495.211 492.94 495.211C571.714 362.441 677.297 450.568 677.297 450.568C681.588 451.308 686.124 451.769 690.832 452.038V35.1808H690.831Z" fill="#C32846"/>
<path d="M367.824 296.521C359.824 302.521 357.824 312.521 353.824 320.521C326.824 288.521 299.824 254.521 254.824 250.521C236.824 278.521 238.824 318.521 232.824 351.521C209.824 340.521 182.824 335.521 158.824 347.521C90.938 381.464 39.023 440.946 3.052 507.423C2.055 510.857 1.042 514.35 0 517.927C4.188 504.25 61.6589 430.25 97.5139 411.948C169.223 375.329 185.087 370.987 265.481 364.159C275.079 342.224 279.605 309.494 286.563 287.607C296.71 309.199 311.939 341.58 315.455 366.008C355.62 327.223 443.964 317.538 493.864 323.473C493.143 324.389 492.412 325.313 491.682 326.235C499.255 321.643 506.898 317.297 514.825 313.521C476.824 281.521 412.824 264.521 367.824 296.521Z" fill="#A11530"/>
<path d="M684.825 342.521C677.825 332.521 673.825 320.521 665.825 310.521C626.825 261.521 588.825 218.521 536.825 179.521C520.825 167.521 497.825 152.521 500.825 135.521C502.825 122.521 522.825 111.521 539.825 107.521C521.825 92.5208 508.825 69.5208 485.825 63.5208C472.825 59.5208 455.825 74.5208 446.825 75.5208C413.825 78.5208 377.825 75.5208 343.825 74.5208C340.825 58.5208 342.825 43.5208 342.825 27.5208C319.825 28.5208 304.825 48.5208 285.825 58.5208C240.403 83.0488 193.33 99.3228 143.858 113.344C142.38 115.116 140.922 116.9 139.504 118.71C175.435 96.3218 212.095 106.574 252.915 105.87C271.671 86.4948 296.914 72.4568 316.974 54.4248C316.974 54.4248 308.386 94.0278 305.517 107.684C337.258 98.9738 384.486 107.676 414.515 120.764C429.262 105.546 465.071 89.9578 484.892 85.5358C470.186 98.0348 448.722 121.53 440.537 137.994C463.179 149.679 484.616 176.709 494.759 198.299C493.191 197.426 490.981 196.432 488.197 195.367C492.015 198.742 495.595 202.412 498.825 206.522C521.825 232.522 544.825 254.522 568.825 279.522C583.825 294.522 601.825 304.522 616.825 319.522C641.349 344.659 666.247 367.167 690.831 390.268V350.03C688.861 347.522 686.863 345.019 684.825 342.521Z" fill="#A11530"/>
<path d="M550.825 396.521C544.825 397.521 537.825 400.521 532.825 404.521C474.335 457.441 426.193 517.26 385.189 582.37C392.75 584.715 398.353 586.477 399.816 586.959C427.631 593.967 492.939 495.21 492.939 495.21C571.713 362.44 677.296 450.567 677.296 450.567C681.587 451.307 686.123 451.768 690.832 452.037V412.707C668.762 406.98 645.979 402.432 622.825 397.521C598.825 392.521 574.825 394.521 550.825 396.521Z" fill="#A11530"/>
<path d="M320.811 82.9748C320.811 72.5178 319.021 65.8298 316.975 54.4248C315.722 60.2638 306.257 104.167 305.518 107.684C308.831 106.775 312.321 106.066 315.935 105.521C318.534 93.4718 320.811 82.9748 320.811 82.9748Z" fill="#FF5B7B"/>
<path d="M401.929 472.047C425.016 439.061 465.885 392.461 497.7 352.023C489.999 351.107 481.38 350.564 472.166 350.442C443.179 385.902 411.903 422.689 394.287 449.048C394.286 449.048 402.128 467.021 401.929 472.047Z" fill="#FF5B7B"/>
<path d="M496.619 39.1268C547.698 53.2058 623.531 104.273 640.264 176.68C640.756 148.741 641.035 132.64 652.478 110.374C650.729 121.31 660.258 133.375 670.102 137.096C673.59 115.239 671.687 95.3028 680.174 73.2098C683.593 70.6558 687.155 68.2778 690.833 66.0208V35.1808C685.787 38.1108 680.934 41.2268 676.338 44.6598C667.852 66.7528 669.755 86.6878 666.266 108.546C656.422 104.825 646.893 92.7598 648.642 81.8238C637.199 104.09 636.921 120.19 636.428 148.13C619.695 75.7228 543.862 24.6558 492.783 10.5768C381.482 -21.5112 216.24 20.7948 139.504 118.71C154.969 109.074 170.57 105.492 186.579 104.473C271.77 37.6838 403.193 12.1928 496.619 39.1268Z" fill="#FF5B7B"/>
<path d="M369.482 518.662C376.385 511.323 402.966 505.404 405.547 501.571C407.321 498.68 398.123 477.597 398.123 477.597C398.897 476.438 399.704 475.255 400.53 474.057C394.692 477.884 371.956 483.404 365.646 490.112C365.646 490.112 313.914 562.778 322.888 564.172C323.888 564.155 329.31 565.6 336.855 567.771C349.833 546.263 369.482 518.662 369.482 518.662Z" fill="#FF5B7B"/>
<path d="M484.892 85.5358C484.892 85.5358 459.64 107.683 444.312 131.334C442.864 133.644 441.589 135.878 440.537 137.994C445.857 140.739 451.108 144.34 456.164 148.51C466.05 135.712 475.061 93.8918 484.892 85.5358Z" fill="#FF5B7B"/>
<path d="M148.392 296.282C270.812 164.92 472.528 212.33 498.594 226.848C493.196 215.358 484.598 202.326 474.322 190.887C414.023 174.039 249.921 154.671 144.556 267.732C36.2119 383.986 26.678 426.364 0 517.927C1.56 512.834 10.5091 499.376 22.9771 483.546C41.9431 428.258 67.8908 382.661 148.392 296.282Z" fill="#FF5B7B"/>
<path d="M678.524 312.785C671.784 292.899 670.452 272.071 662.345 251.032C585.644 206.777 448.567 234.374 383.682 262.965C383.682 262.965 664.8 285.3 656.528 504.739C650.801 500.667 645.327 495.92 640.227 490.694C549.927 440.643 369.001 468.089 291.665 506.747C124.423 590.367 41.9766 711.475 41.9766 885.143C63.2016 844.121 90.0797 812.944 118.282 789.231C128.855 757.233 150.241 729.624 182.437 712.825C173.527 729.159 164.622 745.493 156.302 761.826C225.748 719.18 291.665 714.718 291.665 714.718C291.665 698.865 299.592 659.234 299.592 655.269C315.446 659.229 343.192 675.084 351.119 690.94C373.927 671.638 404.508 657.01 437.005 648.062C435.058 636.662 433.625 625.262 432.201 613.862C441.504 623.165 450.789 632.488 458.932 642.952C493.194 636.36 528.122 636.106 557.216 643.379C480.115 703.602 431.02 770.388 400.55 835.446C402.987 846.863 408.16 857.959 413.351 868.339C405.665 864.496 397.98 861.375 390.294 858.924C325.605 1018.83 368.605 1161.95 377.471 1161.95C372.201 1139.14 395.541 1073.72 424.051 1016.8C420.668 1007.37 417.394 997.94 413.351 988.508C420.857 990.009 428.349 992.483 434.638 996.506C454.358 960.257 475.12 930.62 489.875 922.989C489.875 922.989 481.232 896.13 484.433 867.221C484.433 867.221 489.976 882.348 503.476 894.494C535.145 866.153 619.706 803.343 690.831 771.5V302.157C687.555 306.722 683.604 310.5 678.524 312.785Z" fill="#C32846"/>
<path d="M557.216 643.379C557.338 610.847 534.094 582.91 502.079 577.129C471.733 571.65 441.459 567.313 410.824 574.522C386.824 579.522 398.824 613.522 380.824 625.522C375.824 628.522 364.824 616.522 355.824 613.522C301.824 601.522 265.824 651.522 225.824 679.522C220.824 669.522 224.824 650.522 215.824 649.522C181.824 646.522 157.824 680.522 133.824 702.522C91.8925 740.116 67.2105 787.642 44.2825 836.406C42.7495 852.175 41.9766 868.412 41.9766 885.143C63.2016 844.121 90.0795 812.944 118.281 789.231C128.854 757.233 150.241 729.624 182.437 712.825C173.527 729.159 164.623 745.493 156.302 761.826C225.748 719.18 291.665 714.718 291.665 714.718C291.665 698.865 299.592 659.234 299.592 655.269C315.446 659.229 343.191 675.084 351.118 690.94C373.926 671.638 404.507 657.01 437.004 648.062C435.057 636.662 433.624 625.262 432.199 613.862C441.502 623.165 450.787 632.488 458.93 642.952C490.384 636.9 522.386 636.209 549.933 641.76C553.781 642.305 557.216 643.379 557.216 643.379Z" fill="#A11530"/>
<path d="M512.824 862.521C497.824 845.521 499.824 820.521 484.824 803.521C459.824 834.521 454.824 882.521 453.824 923.521C440.824 919.521 422.824 924.521 415.824 935.521C377.467 991.458 376.787 1053.78 383.674 1116.36C392.057 1087.29 407.144 1050.55 424.05 1016.8C420.667 1007.37 417.393 997.94 413.35 988.508C420.856 990.009 428.348 992.483 434.637 996.506C454.357 960.257 475.119 930.62 489.874 922.989C489.874 922.989 481.231 896.13 484.432 867.221C484.432 867.221 489.975 882.348 503.475 894.494C535.144 866.153 619.705 803.343 690.83 771.5V721.049C649.97 736.503 615.288 760.15 579.824 788.521C552.824 809.521 532.824 835.521 512.824 862.521Z" fill="#A11530"/>
<path d="M690.832 595.983V460.799C674.26 423.014 652.849 387.458 626.826 351.522C605.826 321.522 574.826 305.522 542.826 290.522C501.805 272.397 458.958 259.743 413.428 251.67C402.427 255.303 392.398 259.124 383.682 262.965C383.682 262.965 664.8 285.3 656.528 504.739C655.899 504.292 655.274 503.833 654.652 503.37C660.801 519.603 667.432 535.647 673.233 552.522C678.206 567.445 684.355 581.782 690.832 595.983Z" fill="#A11530"/>
<path d="M304.582 526.711C381.918 488.052 538.975 472.918 656.528 504.739C650.801 500.667 645.327 495.92 640.227 490.694C549.927 440.643 369.001 468.089 291.665 506.747C124.423 590.367 41.9766 711.475 41.9766 885.143C46.6976 876.018 51.7006 867.383 56.9336 859.206C70.5336 709.814 152.488 602.757 304.582 526.711Z" fill="#FF5B7B"/>
<path d="M690.832 330.858V302.158C689.145 304.508 687.276 306.643 685.17 308.479C686.777 316.039 688.47 323.51 690.832 330.858Z" fill="#FF5B7B"/>
<path d="M667.354 266.795C665.982 261.562 664.376 256.303 662.345 251.032C585.644 206.777 448.567 234.374 383.682 262.965C383.682 262.965 402.404 264.453 430.042 270.431C498.268 248.596 601.485 234.494 667.354 266.795Z" fill="#FF5B7B"/>
<path d="M195.355 732.789C181.754 739.885 170.091 748.917 160.348 759.387C170.113 753.584 179.782 748.526 189.183 744.12C191.236 740.342 193.295 736.565 195.355 732.789Z" fill="#FF5B7B"/>
<path d="M377.125 1147.14C365.459 1095.14 357.796 991.153 403.212 878.888C410.898 881.339 418.583 884.46 426.269 888.303C421.078 877.923 415.905 866.826 413.468 855.41C443.938 790.353 493.034 723.566 570.134 663.344C560.223 660.867 549.625 659.283 538.617 658.505C472.116 714.677 428.493 775.787 400.551 835.447C402.988 846.864 408.161 857.96 413.352 868.34C405.666 864.497 397.981 861.376 390.295 858.925C325.606 1018.83 368.606 1161.95 377.472 1161.95C376.589 1158.13 376.513 1153.11 377.125 1147.14Z" fill="#FF5B7B"/>
<path d="M498.158 889.14C497.611 887.9 497.349 887.185 497.349 887.185C497.315 887.495 497.289 887.802 497.258 888.112C497.552 888.454 497.852 888.797 498.158 889.14Z" fill="#FF5B7B"/>
</svg>
