<svg width="1371" height="397" viewBox="0 0 1371 397" fill="none" xmlns="http://www.w3.org/2000/svg">
<g opacity="0.28">
<path opacity="0.28" d="M1370.28 19.907C1370.28 8.91298 1361.22 0 1350.04 0H20.243C9.06298 0 0 8.91198 0 19.907C0 30.901 9.06298 39.8141 20.243 39.8141H1350.04C1361.22 39.8141 1370.28 30.901 1370.28 19.907Z" fill="white"/>
<path opacity="0.28" d="M100.793 84.2852H1269.49C1281.77 84.2852 1291.73 94.2401 1291.73 106.521C1291.73 118.802 1281.77 128.757 1269.49 128.757H100.793C88.5116 128.757 78.5566 118.802 78.5566 106.521C78.5576 94.2411 88.5126 84.2852 100.793 84.2852Z" fill="white"/>
<path opacity="0.28" d="M206.609 39.8141C219.097 39.8141 229.221 49.769 229.221 62.05C229.221 74.33 219.097 84.286 206.609 84.286H140.943V101.852H1229.34V84.286H1222.94C1210.45 84.286 1200.33 74.331 1200.33 62.05C1200.33 49.769 1210.45 39.8141 1222.94 39.8141H1229.34V22.248H140.943V39.8141H206.609Z" fill="white"/>
<path opacity="0.28" d="M326.201 173.847H1044.08C1056.36 173.847 1066.32 183.802 1066.32 196.083C1066.32 208.364 1056.36 218.319 1044.08 218.319H326.201C313.92 218.319 303.965 208.364 303.965 196.083C303.966 183.802 313.921 173.847 326.201 173.847Z" fill="white"/>
<path opacity="0.28" d="M432.018 129.375C444.506 129.375 454.63 139.33 454.63 151.611C454.63 163.892 444.506 173.847 432.018 173.847H366.352V191.413H1003.93V173.847H997.531C985.043 173.847 974.92 163.892 974.92 151.611C974.92 139.33 985.043 129.375 997.531 129.375H1003.93V111.809H366.352V129.375H432.018Z" fill="white"/>
<path opacity="0.28" d="M472.379 262.36H933.919C946.199 262.36 956.155 272.315 956.155 284.596C956.155 296.877 946.2 306.832 933.919 306.832H472.379C460.099 306.832 450.143 296.877 450.143 284.596C450.144 272.315 460.099 262.36 472.379 262.36Z" fill="white"/>
<path opacity="0.28" d="M578.195 217.888C590.683 217.888 600.807 227.843 600.807 240.124C600.807 252.405 590.683 262.36 578.195 262.36H512.529V279.926H893.768V262.36H887.367C874.879 262.36 864.755 252.405 864.755 240.124C864.755 227.843 874.879 217.888 887.367 217.888H893.768V200.322H512.529V217.888H578.195Z" fill="white"/>
<path opacity="0.28" d="M609.193 352.291H843.671C855.952 352.291 865.907 362.246 865.907 374.527C865.907 386.808 855.952 396.763 843.671 396.763H609.193C596.913 396.763 586.957 386.808 586.957 374.527C586.957 362.246 596.912 352.291 609.193 352.291Z" fill="white"/>
<path opacity="0.28" d="M670.575 307.819C683.063 307.819 693.187 317.774 693.187 330.055C693.187 342.336 683.063 352.291 670.575 352.291H649.344V369.857H803.521V352.291H797.12C784.632 352.291 774.508 342.336 774.508 330.055C774.508 317.774 784.632 307.819 797.12 307.819H803.521V290.253H649.344V307.819H670.575V307.819Z" fill="white"/>
</g>
<path d="M1137.16 12.3871C1137.16 5.54608 1131.52 0 1124.57 0H297.102C290.145 0 284.506 5.54608 284.506 12.3871C284.506 19.2281 290.146 24.774 297.102 24.774H1124.57C1131.52 24.774 1137.16 19.2281 1137.16 12.3871Z" fill="#FF7E0F"/>
<path d="M347.225 52.447H1074.45C1082.09 52.447 1088.28 58.6421 1088.28 66.2831C1088.28 73.9241 1082.09 80.119 1074.45 80.119H347.225C339.583 80.119 333.389 73.9241 333.389 66.2831C333.389 58.6411 339.583 52.447 347.225 52.447Z" fill="#FF7E0F"/>
<path d="M413.068 24.774C420.839 24.774 427.138 30.969 427.138 38.61C427.138 46.252 420.839 52.446 413.068 52.446H372.207V63.376H1049.46V52.446H1045.48C1037.71 52.446 1031.41 46.251 1031.41 38.61C1031.41 30.968 1037.71 24.774 1045.48 24.774H1049.46V13.844H372.207V24.774H413.068Z" fill="#FF7E0F"/>
<path d="M487.484 108.176H934.186C941.828 108.176 948.022 114.371 948.022 122.012C948.022 129.653 941.827 135.848 934.186 135.848H487.484C479.843 135.848 473.648 129.653 473.648 122.012C473.648 114.371 479.842 108.176 487.484 108.176Z" fill="#FF7E0F"/>
<path d="M553.328 80.504C561.099 80.504 567.398 86.6991 567.398 94.3401C567.398 101.981 561.098 108.176 553.328 108.176H512.467V119.106H909.202V108.176H905.219C897.448 108.176 891.149 101.981 891.149 94.3401C891.149 86.6981 897.449 80.504 905.219 80.504H909.202V69.574H512.467V80.504H553.328Z" fill="#FF7E0F"/>
<path d="M578.443 163.254H865.636C873.278 163.254 879.472 169.449 879.472 177.09C879.472 184.731 873.277 190.926 865.636 190.926H578.443C570.802 190.926 564.607 184.731 564.607 177.09C564.607 169.448 570.802 163.254 578.443 163.254Z" fill="#FF7E0F"/>
<path d="M644.289 135.581C652.06 135.581 658.359 141.776 658.359 149.417C658.359 157.058 652.06 163.253 644.289 163.253H603.428V174.183H840.654V163.253H836.671C828.9 163.253 822.601 157.058 822.601 149.417C822.601 141.775 828.9 135.581 836.671 135.581H840.654V124.651H603.428V135.581H644.289Z" fill="#FF7E0F"/>
<path d="M663.576 219.213H809.48C817.121 219.213 823.316 225.408 823.316 233.049C823.316 240.691 817.121 246.885 809.48 246.885H663.576C655.934 246.885 649.74 240.69 649.74 233.049C649.74 225.408 655.935 219.213 663.576 219.213Z" fill="#FF7E0F"/>
<path d="M701.772 191.54C709.543 191.54 715.842 197.735 715.842 205.376C715.842 213.018 709.543 219.212 701.772 219.212H688.561V230.142H784.498V219.212H780.515C772.744 219.212 766.445 213.017 766.445 205.376C766.445 197.735 772.744 191.54 780.515 191.54H784.498V180.61H688.561V191.54H701.772Z" fill="#FF7E0F"/>
<path opacity="0.56" d="M506.148 22.248H533.254" stroke="white" stroke-width="9.5309" stroke-miterlimit="10" stroke-linecap="round" stroke-linejoin="round"/>
<path opacity="0.56" d="M603.414 22.248H727.789" stroke="white" stroke-width="9.5309" stroke-miterlimit="10" stroke-linecap="round" stroke-linejoin="round"/>
<path opacity="0.56" d="M813.793 22.248H904.145" stroke="white" stroke-width="9.5309" stroke-miterlimit="10" stroke-linecap="round" stroke-linejoin="round"/>
<path opacity="0.56" d="M928.951 22.248H956.478" stroke="white" stroke-width="9.5309" stroke-miterlimit="10" stroke-linecap="round" stroke-linejoin="round"/>
<path opacity="0.56" d="M727.789 81.415H818.141" stroke="white" stroke-width="9.5309" stroke-miterlimit="10" stroke-linecap="round" stroke-linejoin="round"/>
<path opacity="0.56" d="M707.682 135.427H761.065" stroke="white" stroke-width="9.5309" stroke-miterlimit="10" stroke-linecap="round" stroke-linejoin="round"/>
<path opacity="0.56" d="M736.527 233.049H763.534" stroke="white" stroke-width="9.5309" stroke-miterlimit="10" stroke-linecap="round" stroke-linejoin="round"/>
<path opacity="0.56" d="M652.459 81.415H679.986" stroke="white" stroke-width="9.5309" stroke-miterlimit="10" stroke-linecap="round" stroke-linejoin="round"/>
</svg>
